<svg version="1.2" xmlns="http://www.w3.org/2000/svg" viewBox="0 0 309 180" width="309" height="180"><style>.a{fill:#333a40}.b{fill:#f21b1b}</style><path fill-rule="evenodd" class="a" d="m249.5 86.1l10.7-17.8v19.4q-0.1 10.3-7.4 17.5-7.3 7.3-17.5 7.3-0.8 0-1.6 0l6.8-11.4q2.7-1 4.9-3.3 4.2-4.1 4.2-10.1 0-0.8-0.1-1.6zm59.1 21q0 2.2-1.5 3.8-1.5 1.5-3.7 1.5h-28.2q-5.1 0-7.1-4.8-0.8-1.8-0.8-3.4 0-2.9 2.4-5.4 4.3-4.4 12.9-13.5 7.6-7.9 11.6-12.1h-20q-2.2 0-3.7-1.6-1.5-1.5-1.5-3.7v-0.1q0-2.1 1.5-3.6 1.5-1.6 3.7-1.6h26.1q5.3 0 7.3 4.8 0.8 1.8 0.8 3.4 0 2.9-2.4 5.4-14 14.7-24.5 25.6h21.9q2.2 0 3.7 1.5 1.5 1.6 1.5 3.8zm-86.9 25.4v12.3q0 5.3-3.8 9-3.7 3.8-8.9 3.8-1.2 0-2.3-0.2l1-1.7q0.6 0.1 1.3 0.1 4.5 0 7.7-3.2 3.2-3.2 3.2-7.8v-9.4zm36.8-19.1v28.5q0 6.5-4.6 11.1-4.6 4.6-11.1 4.6-6.6 0-11.2-4.7-4.6-4.6-4.6-11.1 0-6.5 4.6-11.1 4.6-4.7 11.2-4.7 5.9 0 10.4 4 1.8 1.5 3.6 4.6v-21.2q0-0.8 0.9-0.8 0.9 0 0.8 0.8zm-1.7 28.5q0-5.8-4.1-9.9-4.1-4.1-9.9-4.1-5.8 0-9.9 4.1-4.1 4.1-4.1 9.9 0 5.8 4.1 9.9 4.1 4.1 9.9 4.1 5.8 0 9.9-4.1 4.1-4.1 4.1-9.9zm10.6-15v29.8q0 0.9-0.8 0.9h-0.1q-0.8 0-0.8-0.9v-29.8q0-0.9 0.8-0.9 0.9 0 0.9 0.9zm37.8 14.9q0 6.5-4.7 11.1-4.5 4.7-11.1 4.7-6.5 0-11.1-4.7-4.6-4.6-4.6-11.1 0-6.5 4.6-11.1 4.6-4.7 11.1-4.7 6.6 0 11.1 4.7 4.7 4.6 4.7 11.1zm-1.8 0.1q0.1-5.8-4.1-9.9-4.1-4.1-9.9-4.1-5.8 0-9.9 4.1-4.1 4.1-4.1 9.9 0 5.8 4.1 9.9 4.1 4.1 9.9 4.1 5.8 0 9.9-4.1 4.2-4.1 4.1-9.9z"/><path class="b" d="m182.9 71.7q-1.5 1.6-3.7 1.6h-2.4q-3.6 0-6 2.5-2.5 2.4-2.5 6v25.5q0 2.2-1.6 3.7-1.5 1.5-3.6 1.5h-0.2q-2.1 0-3.6-1.5-1.6-1.5-1.6-3.7v-25.5q0.1-7.9 5.6-13.5 5.6-5.6 13.5-5.6h2.4q2.2 0 3.7 1.6 1.6 1.5 1.6 3.7v0.1q0 2.1-1.6 3.6zm8.9-16.4q-1.7-1.7-1.7-4.2 0-2.5 1.7-4.3 1.8-1.7 4.3-1.7 2.5 0 4.3 1.7 1.8 1.8 1.8 4.3 0 2.5-1.8 4.2-1.8 1.8-4.3 1.8-2.5 0-4.3-1.8zm8 55.7q-1.4 1.5-3.6 1.5h-0.1q-2.2 0-3.7-1.5-1.6-1.5-1.6-3.7v-39.3q0-2.2 1.6-3.7 1.5-1.6 3.7-1.6h0.1q2.2 0 3.6 1.6 1.6 1.5 1.6 3.7v39.3q0 2.2-1.6 3.7zm60.4-60.8v5l-14 23.3q-0.4-0.5-0.8-0.9-4.2-4.2-10.1-4.2-6 0-10.2 4.2-4.1 4.2-4.1 10.1 0 6 4.1 10.1 3.1 3.1 7.1 3.9l-5.5 9.3q-5-1.8-9-5.8-7.3-7.3-7.3-17.6 0-10.3 7.3-17.6 7.3-7.3 17.6-7.3 9.3 0 14.3 4.3v-16.8q0-2.1 1.5-3.7 1.6-1.5 3.7-1.5h0.1q2.2 0 3.7 1.5 1.6 1.6 1.6 3.7zm-84.8 99.1q0 3.4-2.4 5.8-2.5 2.5-5.9 2.5h-8.5q-0.9 0-0.9-0.9 0-0.9 0.9-0.9h8.5q2.7 0 4.6-1.9 2-1.9 2-4.6 0-3.2-2.3-4.6-0.9-0.6-4.7-1.7-4.3-1.1-6.2-2.7-2.4-2.1-2.4-5.9 0-3.5 2.4-5.9 2.4-2.5 5.9-2.5h6q0.9 0 0.9 0.9 0 0.9-0.9 0.9h-6q-2.7 0-4.6 1.9-1.9 2-1.9 4.7 0 3.3 2.6 5.1 1.5 1 5.3 2 4.1 1.1 5.6 2.3 2 1.8 2 5.5zm7.7-21.5v22.6q0 2.2 1.6 3.8 1.6 1.6 3.8 1.6h2.7q0.8 0 0.8 0.9 0 0.9-0.8 0.9h-2.7q-2.9 0-5.1-2.1-2.1-2.1-2.1-5.1v-37q0-0.8 0.9-0.8 0.9 0 0.9 0.8v12.6h8.1q0.8 0 0.8 0.9 0 0.9-0.8 0.9zm18.1 24.8q0.1 0.2 0.3 0.3l-0.9 1.5q-0.4-0.2-0.7-0.6-3.7-3.7-3.7-9v-17.9q0-0.9 0.9-0.9 0.8 0 0.8 0.9v17.9q0 4.6 3.3 7.8z"/><path class="a" d="m91.5 118.1c0 1.4 0.5 2.7 1.4 3.6q0.1 0.2 0.3 0.4 0.1 0.2 0.3 0.3l38.4 38.4c2 2 3.3 4.8 3.3 8 0 6.2-5 11.2-11.3 11.2-3.1 0-5.9-1.3-7.9-3.3l-38.5-38.5q-0.1 0-0.1-0.1 0-0.1-0.1-0.1c-1-1-2.4-1.6-4-1.6-3 0-5.5 2.4-5.6 5.4q0 0.1 0 0.2 0 0.1 0 0.1v26.6c0 6.3-5 11.3-11.3 11.3h-44.9c-6.3 0-11.3-5-11.3-11.3v-112.5c0-6.2 5-11.2 11.3-11.2h67.4c6.3 0 11.3 5 11.3 11.2 0 6.3-5 11.3-11.3 11.3h-45c-6.2 0-11.2 5-11.2 11.2v67.5c0 6.3 5 11.3 11.2 11.3 6.3 0 11.3-5 11.3-11.3v-45c0-6.2 5-11.2 11.2-11.2h45c6.3 0 11.3-5 11.3-11.3v-45c0-6.2-5-11.2-11.3-11.2h-45c-6.2 0-11.2-5-11.2-11.3 0-6.2 5-11.2 11.2-11.2h67.5c6.3 0 11.3 5 11.3 11.2v90c0 6.3-5 11.3-11.3 11.3h-26.8c-3 0-5.6 2.5-5.6 5.6z"/></svg>